<svg xmlns="http://www.w3.org/2000/svg" viewBox="0 0 64 64" role="img" aria-label="Logo Leo Celulares">
  <rect x="1" y="1" width="62" height="62" rx="14" fill="#0b1020" stroke="rgba(255,255,255,.12)"/>
  <circle cx="32" cy="34" r="24" fill="rgba(34,197,94,.08)"/>

  <path d="M22 38c-2.7 0-5-2.1-5-6.1 0-3.6 2.2-5.9 5.1-5.9 1.5 0 2.7.6 3.7.6 1.1 0 2.1-.7 3.5-.7.5 0 .9.1 1.3.2-1.3 1-2 2.4-2 3.8 0 2.4 1.5 4 2.8 4.5-.5 1.8-2.1 4.6-4.7 4.6-1.1 0-2.1-.6-3.2-.6-1.1 0-2 .6-3.5.6z" fill="#ffffff"/>
  <path d="M26.8 23.9c.2-1.6 1.2-2.8 2.7-3.3.1 1.8-.7 3.1-2.2 3.8z" fill="#ffffff"/>

  <path d="M35.5 39v-5.6c0-3.3 2.3-5.7 5.8-5.7 3.6 0 5.9 2.4 5.9 5.7V39z" fill="#3ddc84"/>
  <rect x="39.4" y="31.4" width="1.3" height="3" rx=".6" transform="rotate(-30 40 33)" fill="#3ddc84"/>
  <rect x="43.6" y="31.4" width="1.3" height="3" rx=".6" transform="rotate(30 44.2 33)" fill="#3ddc84"/>
  <circle cx="39.5" cy="34.2" r=".8" fill="#0b1020"/>
  <circle cx="43.3" cy="34.2" r=".8" fill="#0b1020"/>
</svg>
